<?xml version="1.0" standalone="no"?>
<!DOCTYPE svg PUBLIC "-//W3C//DTD SVG 20010904//EN"
 "http://www.w3.org/TR/2001/REC-SVG-20010904/DTD/svg10.dtd">
<svg version="1.0" xmlns="http://www.w3.org/2000/svg"
 width="320.000000pt" height="178.000000pt" viewBox="0 0 320.000000 178.000000"
 preserveAspectRatio="xMidYMid meet">

<g transform="translate(0.000000,178.000000) scale(0.100000,-0.100000)"
fill="#000000" stroke="none">
<path d="M675 1771 c3 -5 -3 -12 -12 -16 -29 -9 -80 -86 -102 -154 -34 -103
-24 -192 30 -294 12 -21 18 -45 15 -53 -3 -8 -2 -12 3 -9 14 8 40 -34 34 -56
-3 -10 -9 -16 -14 -13 -5 3 -9 -4 -9 -16 0 -12 4 -19 8 -16 19 12 40 -53 45
-141 l6 -93 -42 -11 c-23 -6 -64 -17 -91 -25 -77 -22 -88 -19 -118 30 -16 24
-28 45 -28 48 0 3 12 5 28 5 41 -1 112 14 112 24 0 5 3 8 8 8 4 -1 15 -1 24 0
16 1 16 3 -2 33 -19 32 -18 53 3 42 7 -3 1 4 -13 16 -14 12 -19 19 -12 15 11
-6 12 -4 3 11 -19 33 -38 54 -49 54 -6 0 -9 7 -6 15 5 11 2 13 -10 9 -21 -8
-20 -20 2 -42 31 -31 17 -47 -53 -58 l-64 -9 -15 32 c-16 34 -23 38 -43 25 -9
-6 -5 -16 13 -37 19 -22 22 -24 14 -7 -6 12 -7 22 -1 22 9 0 32 -55 26 -62 -2
-2 14 -2 36 0 21 2 42 8 45 13 3 5 -3 6 -13 3 -15 -5 -15 -4 -3 5 9 6 18 7 24
1 6 -6 19 -10 31 -9 20 0 20 0 0 9 -16 7 -17 9 -3 9 28 1 47 -10 41 -25 -3 -8
1 -14 10 -14 8 0 18 -7 21 -16 4 -11 2 -15 -8 -11 -8 3 -17 -1 -20 -9 -3 -8
-14 -14 -25 -14 -11 0 -23 -5 -26 -10 -12 -19 -156 -5 -202 19 -23 11 -49 21
-56 21 -8 0 -20 13 -27 30 -20 49 -101 114 -167 134 l-23 7 0 -128 c1 -95 4
-133 15 -147 8 -10 12 -23 8 -29 -3 -6 -1 -7 6 -3 23 15 25 -27 1 -46 -18 -14
-20 -21 -11 -32 10 -11 8 -15 -6 -19 -17 -4 -17 -5 0 -6 11 -1 17 -9 17 -25 0
-27 -16 -43 -23 -24 -2 7 -5 -24 -6 -69 -1 -65 1 -81 12 -77 7 2 24 0 38 -5
18 -7 19 -10 6 -10 -10 -1 -20 -8 -23 -16 -5 -13 -9 -13 -22 -3 -8 7 -13 9
-11 3 20 -46 35 -64 64 -79 18 -10 52 -38 76 -63 l44 -45 -35 -29 c-31 -26
-33 -35 -5 -29 6 1 7 -2 3 -6 -4 -4 1 -15 12 -24 20 -18 20 -18 -2 -24 -40
-10 -78 -6 -84 9 -3 8 -21 23 -40 34 l-34 20 0 -159 0 -160 109 0 c78 0 111 4
114 13 4 10 6 10 6 0 1 -20 100 -17 122 3 15 13 25 14 56 5 l38 -10 -35 4
c-19 3 -41 1 -48 -4 -8 -5 3 -8 28 -9 22 -1 51 5 64 13 23 15 56 11 56 -6 0
-5 23 -9 51 -9 41 0 50 3 46 14 -4 11 -1 13 10 9 10 -4 14 -2 10 4 -3 5 0 10
8 10 14 0 19 -10 16 -29 0 -5 3 -8 9 -8 14 0 13 53 -1 84 -15 31 -34 39 -49
20 -18 -21 -33 -17 -21 5 6 10 7 21 3 25 -10 11 18 24 40 18 15 -4 17 -7 6
-13 -9 -6 -6 -9 10 -9 17 0 26 -8 33 -30 6 -16 18 -30 26 -30 8 0 11 -5 8 -10
-3 -6 1 -13 9 -16 12 -5 13 -10 5 -25 -9 -17 -6 -19 40 -19 27 0 60 4 73 9 55
20 78 22 78 6 0 -12 12 -15 58 -14 31 0 66 4 77 8 11 5 25 4 33 -2 21 -16 22
-4 7 53 -20 73 -19 80 8 80 21 0 22 -3 19 -70 -3 -65 -2 -70 17 -70 15 0 21 6
21 21 0 11 4 18 10 14 5 -3 7 -12 3 -20 -4 -13 67 -15 557 -15 494 0 561 2
550 15 -9 11 -9 21 1 45 8 16 18 30 22 30 5 0 5 -4 2 -10 -3 -5 -1 -10 4 -10
6 0 11 4 11 10 0 5 7 6 17 3 11 -4 14 -3 9 5 -4 7 -4 12 1 12 14 0 35 -59 28
-80 -6 -20 -3 -20 298 -20 279 0 308 2 348 19 24 11 74 25 112 31 l67 12 0
212 c0 136 -4 206 -10 196 -7 -12 -12 -12 -22 -2 -6 6 -23 12 -37 12 -33 0
-67 20 -36 20 37 1 -7 20 -50 22 -32 1 -28 3 20 7 l60 6 -42 42 c-32 31 -48
40 -65 36 -16 -3 -19 -2 -10 5 11 7 9 10 -7 15 -12 3 -21 13 -21 25 0 11 -7
23 -16 26 -24 9 -27 8 -21 -13 5 -22 -13 -34 -32 -21 -9 5 -10 10 -2 14 17 11
13 23 -9 29 -11 3 -20 1 -20 -4 0 -5 -18 0 -40 11 -22 11 -40 17 -40 13 0 -4
-16 16 -35 44 -35 52 -86 90 -105 78 -5 -3 -18 -2 -27 4 -16 8 -18 3 -20 -45
-3 -87 -78 -227 -136 -255 -21 -10 -21 -10 -3 5 11 9 14 16 8 16 -19 0 -14 49
9 81 11 16 17 29 13 29 -3 0 -1 6 5 13 6 8 7 17 3 21 -11 11 -10 86 2 86 5 0
7 3 4 6 -4 3 0 21 8 39 19 46 18 54 -6 48 -11 -3 -23 -16 -26 -29 -3 -13 -10
-22 -15 -19 -4 3 -13 -4 -19 -15 -6 -11 -19 -20 -29 -20 -9 0 -27 -12 -40 -26
-12 -14 -29 -23 -37 -20 -8 3 -14 -1 -14 -9 0 -12 -5 -12 -25 -3 -30 14 -33
28 -5 28 21 0 23 7 20 51 -2 40 28 46 56 12 l23 -28 1 34 c0 40 -25 64 -51 48
-11 -7 -26 -7 -49 1 -18 7 -37 9 -44 5 -22 -14 -119 -12 -134 3 -12 13 -17 12
-33 -7 -14 -17 -17 -31 -13 -60 4 -22 2 -39 -2 -39 -14 0 -57 32 -77 57 -19
24 -47 31 -47 13 0 -6 7 -27 16 -48 9 -20 18 -50 19 -67 8 -72 35 -145 54
-145 5 0 14 -15 22 -32 7 -18 21 -44 31 -57 10 -13 16 -26 14 -28 -9 -9 -86
38 -80 49 4 6 3 8 -3 5 -15 -9 -69 52 -92 103 -10 25 -23 76 -27 115 l-7 69
-39 -44 c-21 -25 -35 -36 -32 -26 7 18 5 18 -32 -4 -57 -35 -96 -69 -117 -101
-15 -23 -26 -29 -53 -29 -24 0 -37 -6 -45 -23 -7 -12 -11 -24 -9 -27 5 -7 -43
-39 -71 -45 -22 -5 -29 0 -52 34 -15 22 -46 59 -69 82 -29 28 -35 37 -19 29
48 -25 111 -85 111 -106 0 -20 10 -18 64 16 30 19 44 35 40 42 -6 9 -9 9 -12
0 -2 -7 -10 -12 -18 -12 -8 0 -14 -5 -14 -11 0 -5 -4 -8 -9 -5 -5 4 -12 0 -14
-6 -3 -7 -6 -3 -6 9 -1 12 -7 28 -15 35 -7 8 -16 35 -20 61 -4 26 -11 47 -17
47 -5 0 -9 6 -9 14 0 8 -8 28 -17 44 -15 27 -16 37 -4 97 12 57 11 69 0 77
-11 8 -11 9 2 5 12 -4 18 2 22 19 4 21 1 24 -22 22 -41 -2 -89 12 -95 29 -5
12 -1 14 19 9 36 -9 31 3 -7 16 -28 10 -30 12 -12 19 27 11 36 11 29 0 -3 -5
4 -12 15 -16 11 -3 20 -11 20 -16 0 -5 7 -9 16 -9 14 0 15 -2 3 -17 -13 -15
-12 -15 6 -6 20 11 50 10 256 -3 103 -7 106 -6 112 15 3 14 1 21 -8 21 -23 0
-29 22 -11 36 11 7 13 15 7 18 -15 10 12 146 29 146 4 0 15 15 24 33 10 20 16
26 16 14 0 -10 5 -15 10 -12 6 3 10 2 10 -3 0 -5 17 -6 38 -3 l37 7 -3 50 c-5
72 10 84 103 84 41 0 86 5 102 11 15 6 90 18 166 25 l139 14 26 -28 c18 -19
36 -28 52 -27 24 2 25 4 25 71 0 61 -3 72 -28 98 -15 16 -27 36 -27 45 0 13
-2 13 -9 2 -7 -11 -10 -10 -15 5 -3 11 -4 7 -2 -8 2 -16 -2 -28 -8 -28 -6 0
-11 14 -11 31 0 41 -45 80 -70 59 -13 -11 -15 -10 -10 2 3 8 -6 25 -21 38 -21
20 -26 21 -21 7 6 -16 5 -17 -14 -3 -14 9 -37 13 -65 10 -24 -2 -44 0 -44 5 0
23 -169 -22 -205 -55 -15 -13 -31 -24 -36 -24 -6 0 -8 -4 -5 -8 8 -13 -54 -46
-65 -35 -6 6 0 15 16 23 14 7 25 19 25 27 0 18 -19 17 -26 -2 -4 -9 -13 -13
-23 -10 -10 3 -27 -4 -39 -15 -11 -11 -30 -20 -42 -20 -11 0 -20 -4 -20 -10 0
-5 -18 -10 -40 -10 -29 0 -40 -4 -40 -15 0 -8 -8 -15 -19 -15 -10 0 -24 -7
-31 -15 -7 -8 -21 -15 -32 -15 -10 0 -30 -11 -43 -24 -22 -22 -52 -44 -175
-126 -30 -21 -83 -46 -117 -56 -43 -13 -64 -24 -69 -39 -6 -17 -8 -15 -11 13
-2 18 -8 30 -13 27 -5 -3 -7 -12 -4 -19 6 -16 -33 -29 -42 -14 -3 5 -3 21 0
34 5 20 10 23 20 15 10 -9 15 -8 20 5 9 22 8 24 -9 18 -10 -4 -15 0 -15 11 0
9 4 13 10 10 5 -3 3 12 -5 34 -7 21 -12 41 -9 43 6 7 -32 131 -54 173 -19 37
-47 70 -86 103 -18 15 -361 18 -351 3z m266 -113 c52 -21 59 -26 59 -51 0 -20
4 -26 13 -21 9 6 9 5 0 -8 -7 -8 -10 -18 -6 -21 3 -4 -2 -7 -13 -7 -13 0 -15
-3 -6 -8 7 -5 -15 -6 -48 -4 -50 4 -60 2 -60 -12 0 -13 11 -16 49 -16 27 0 58
-3 68 -6 15 -5 15 -4 3 5 -8 6 -10 11 -4 11 14 0 94 -78 94 -92 0 -5 5 -6 10
-3 6 3 10 2 10 -4 0 -5 -5 -11 -12 -13 -7 -3 -9 -11 -3 -24 4 -10 7 -31 6 -46
-2 -17 6 -35 21 -50 21 -21 23 -31 24 -147 0 -89 -3 -127 -13 -136 -7 -8 -13
-17 -13 -21 0 -4 -19 -25 -42 -46 -97 -86 -189 -69 -303 53 -71 77 -95 115
-95 152 0 40 11 33 48 -28 45 -76 49 -69 7 11 -19 36 -35 77 -35 90 0 27 32
64 55 64 9 0 18 6 21 14 3 8 11 17 18 19 15 6 16 -109 2 -132 -6 -10 -5 -12 2
-7 8 5 12 -3 12 -25 0 -46 52 -99 97 -99 21 0 32 5 31 13 -2 6 7 12 19 12 33
1 61 32 68 78 6 33 4 43 -11 54 -21 15 -94 18 -94 3 0 -5 -13 -10 -29 -10 -21
0 -32 6 -36 20 -7 23 2 43 16 34 6 -3 19 2 29 11 12 11 20 13 25 6 3 -6 10
-11 15 -11 12 0 4 74 -9 78 -6 2 -11 10 -11 19 0 10 6 13 23 8 14 -4 10 1 -13
16 -19 12 -42 29 -50 38 -10 11 -30 17 -57 16 -24 0 -43 -1 -43 -3 0 -1 5 -11
12 -22 7 -10 10 -22 7 -25 -3 -3 -38 -7 -77 -9 -59 -3 -72 -1 -72 11 0 22 40
51 83 58 30 5 37 11 36 28 0 12 -3 17 -5 10 -4 -8 -14 -9 -35 -3 -17 5 -36 7
-43 4 -10 -4 -15 6 -18 32 -4 33 0 42 31 71 19 18 43 35 53 38 10 4 15 12 11
21 -3 8 1 14 11 14 10 0 13 -6 10 -15 -7 -18 0 -19 18 -2 14 13 57 35 72 36 5
1 35 -9 67 -21z m-317 -151 c4 -15 10 -26 15 -23 14 9 8 -27 -8 -46 -20 -24
-31 -7 -31 53 0 40 11 75 16 52 1 -4 5 -21 8 -36z m1226 -84 l-5 -98 -3 84
c-2 74 1 111 10 111 2 0 1 -44 -2 -97z m-1075 -73 c4 -6 11 -7 17 -4 7 4 8 2
4 -5 -6 -9 -11 -9 -23 1 -13 10 -14 8 -11 -12 2 -21 -1 -25 -22 -22 -39 4 -45
19 -14 36 35 18 41 19 49 6z m-112 -15 c4 -8 2 -17 -3 -20 -6 -4 -10 3 -10 14
0 25 6 27 13 6z m231 -20 c7 -20 -33 -43 -44 -24 -5 7 -6 18 -3 26 7 18 39 17
47 -2z m298 -37 c-5 -30 -19 -37 -28 -13 -8 20 1 42 18 42 10 0 13 -9 10 -29z
m-178 -86 c15 -8 -18 -22 -54 -22 -19 0 -51 -10 -70 -22 -42 -26 -58 -30 -67
-16 -3 7 -1 8 5 4 6 -3 16 3 22 14 6 11 23 23 38 26 15 4 32 10 37 14 22 17
60 18 89 2z m-674 -66 c0 -3 -4 -8 -10 -11 -5 -3 -10 -1 -10 4 0 6 5 11 10 11
6 0 10 -2 10 -4z m1422 -14 c-7 -2 -12 -19 -12 -39 0 -30 -3 -34 -22 -31 -18
2 -23 10 -23 33 0 23 5 31 23 33 12 2 22 8 22 13 0 6 5 7 12 3 9 -6 9 -9 0
-12z m-337 -32 c3 -5 -4 -6 -15 -3 -11 3 -22 9 -25 13 -3 5 4 6 15 3 11 -3 22
-9 25 -13z m-221 -39 c3 -4 -3 -16 -13 -25 -17 -16 -18 -15 -14 9 5 25 17 32
27 16z m70 -10 c3 -5 -5 -16 -19 -25 -23 -15 -26 -15 -32 0 -9 24 37 48 51 25z
m-59 -42 c11 -17 -1 -21 -15 -4 -8 9 -8 15 -2 15 6 0 14 -5 17 -11z m103 -18
c3 -9 0 -11 -8 -6 -9 5 -11 4 -6 -4 4 -6 11 -9 15 -6 15 9 41 -19 32 -34 -14
-22 -71 7 -67 34 2 11 1 14 -1 7 -5 -15 -25 -11 -30 5 -4 12 21 22 46 19 8 0
16 -7 19 -15z m-125 -5 c4 -10 1 -13 -8 -9 -8 3 -12 9 -9 14 7 12 11 11 17 -5z
m-977 -31 c10 -10 5 -16 -24 -28 -45 -20 -70 -25 -71 -14 -3 26 0 32 7 19 14
-22 44 -3 39 25 -4 20 -1 23 16 17 12 -4 27 -12 33 -19z m1011 1 c3 -3 -7 -6
-23 -7 -28 0 -28 -1 -6 -10 29 -11 20 -29 -16 -29 -15 0 -22 -4 -17 -8 14 -9
13 -28 -2 -43 -10 -10 -16 -9 -28 1 -13 11 -15 10 -9 -6 5 -18 5 -18 -6 -1 -9
14 -8 23 4 42 9 13 16 33 16 43 0 10 3 21 6 25 8 7 72 2 81 -7z m-426 -19 c-6
-8 -7 -18 -3 -23 4 -4 -2 -2 -12 6 -18 14 -19 14 -8 -7 15 -27 16 -56 2 -48
-6 4 -8 11 -4 16 3 5 0 16 -6 24 -15 18 2 45 27 45 12 0 13 -3 4 -13z m300 0
c-6 -8 -9 -16 -7 -18 3 -2 -4 -15 -16 -29 -11 -14 -17 -20 -14 -13 7 13 -28
28 -44 18 -5 -3 -10 -15 -10 -27 0 -16 5 -19 25 -16 21 4 23 3 13 -9 -7 -9
-21 -12 -34 -9 -13 4 -26 1 -29 -4 -10 -17 -20 -4 -23 29 -1 20 2 31 10 31 7
0 40 13 73 29 71 35 71 35 56 18z m212 -16 c-2 -6 4 -8 14 -4 16 6 -136 -189
-157 -202 -6 -4 -8 -11 -4 -16 3 -5 1 -8 -4 -7 -6 2 -34 -20 -64 -48 l-54 -51
-34 22 c-33 21 -55 70 -25 59 8 -3 30 4 50 16 36 23 46 34 20 24 -9 -4 -15 0
-15 8 0 21 21 38 46 38 21 0 34 12 137 133 41 47 52 55 70 47 12 -4 21 -13 20
-19z m-470 -27 c12 16 62 12 52 -4 -3 -5 -1 -11 5 -15 13 -8 13 -45 1 -45 -6
0 -12 4 -15 9 -6 9 -46 22 -46 15 0 -3 10 -9 23 -14 16 -6 17 -9 5 -9 -9 -1
-20 -6 -24 -12 -5 -8 1 -10 18 -6 15 4 32 1 44 -8 18 -14 18 -14 -3 -15 -12 0
-25 -5 -28 -10 -5 -8 -11 -8 -19 -1 -7 6 -15 8 -19 5 -3 -3 -14 -1 -24 6 -16
10 -16 10 4 5 18 -5 22 -2 20 15 -1 11 -5 20 -10 20 -4 0 -5 6 -1 13 5 8 2 8
-9 -2 -15 -12 -17 -10 -17 26 0 48 23 79 28 38 3 -23 5 -25 15 -11z m554 10
c-3 -3 -12 -4 -19 -1 -8 3 -5 6 6 6 11 1 17 -2 13 -5z m767 -43 c17 -6 17 -9
3 -23 -19 -19 -5 -44 28 -50 19 -3 19 -4 -4 -27 -16 -16 -26 -20 -29 -13 -2 7
-9 9 -15 5 -6 -4 -8 0 -4 9 4 12 0 15 -16 11 -16 -3 -18 -2 -9 5 11 7 11 11 0
23 -16 17 -17 39 -3 56 11 14 22 15 49 4z m-2097 -33 c-3 -8 -6 -5 -6 6 -1 11
2 17 5 13 3 -3 4 -12 1 -19z m2626 1 l22 -21 -22 11 c-12 6 -25 16 -28 21 -11
17 5 11 28 -11z m-1299 2 c3 -5 -1 -14 -9 -21 -8 -7 -15 -20 -15 -28 0 -13 -3
-12 -14 4 -14 18 -15 18 -21 2 -4 -10 -10 -16 -14 -14 -3 2 -15 -2 -26 -10
-19 -14 -19 -14 1 -14 16 0 17 -2 4 -10 -17 -11 -37 -13 -27 -3 4 3 1 13 -6
21 -8 10 -8 13 -1 9 7 -4 15 0 18 9 3 8 10 13 15 10 5 -3 21 7 37 23 30 30 49
37 58 22z m-864 -16 c-7 -8 -20 -15 -29 -15 -11 1 -8 5 9 15 32 18 35 18 20 0z
m187 3 c1 -7 4 -28 8 -45 5 -22 4 -33 -4 -33 -6 0 -11 4 -11 9 0 6 -12 23 -27
38 -15 16 -24 21 -20 11 4 -12 2 -15 -8 -12 -8 3 -11 13 -9 22 3 9 -1 7 -8 -6
l-14 -23 -20 23 c-12 14 -13 18 -3 10 13 -10 19 -9 29 3 15 18 86 21 87 3z
m-244 -21 c-3 -5 -15 -6 -27 -3 -19 5 -19 4 -4 -8 23 -17 12 -26 -22 -19 -22
4 -31 0 -40 -16 -6 -12 -8 -26 -5 -31 4 -6 1 -9 -6 -8 -7 2 -15 -8 -19 -22 -5
-21 -7 -22 -13 -7 -3 9 -3 24 0 34 4 11 3 14 -5 9 -7 -4 -12 -20 -12 -37 l0
-29 -27 30 -28 30 -23 -20 c-32 -27 -22 -60 19 -60 30 0 54 -30 31 -38 -7 -2
-10 -8 -6 -13 8 -14 -12 -10 -25 5 -6 7 -22 11 -36 8 -15 -2 -25 0 -25 7 0 6
-15 11 -32 10 -31 -1 -31 -2 -8 -8 22 -7 21 -8 -16 -14 -38 -6 -114 13 -114
28 0 9 59 35 78 35 11 0 43 16 72 35 28 19 81 44 118 55 36 11 74 30 85 41 13
14 29 19 57 17 21 -2 36 -7 33 -11z m522 1 c26 -12 32 -23 15 -33 -18 -11 -50
6 -50 26 0 22 1 23 35 7z m-191 -39 c-7 -11 -34 -12 -34 -1 0 14 11 21 26 15
8 -3 11 -9 8 -14z m113 -7 c2 -19 1 -20 -10 -10 -16 14 -18 40 -4 35 6 -2 12
-13 14 -25z m-67 -2 c0 -13 -23 -28 -35 -24 -7 3 -16 1 -20 -5 -9 -16 -22 -13
-22 4 0 8 8 15 18 15 10 0 20 4 23 8 6 10 36 12 36 2z m-205 -10 c4 -6 12 -7
23 -1 23 13 67 -16 51 -35 -9 -11 -7 -14 10 -14 11 0 21 -5 21 -12 0 -6 3 -8
7 -5 3 4 11 3 17 -2 22 -17 45 -20 40 -6 -3 7 2 15 13 18 10 3 2 6 -17 7 -28
1 -31 3 -15 9 11 5 23 7 28 4 4 -2 10 3 13 11 3 9 13 16 20 16 11 0 12 -4 4
-19 -13 -25 -13 -31 0 -31 6 0 10 6 10 13 0 22 16 38 33 31 9 -3 17 -17 17
-30 0 -20 -5 -24 -33 -24 -38 0 -58 -15 -50 -37 5 -12 1 -14 -17 -8 -16 5 -21
4 -18 -6 2 -7 15 -16 29 -20 23 -7 23 -7 2 -8 -12 -1 -25 4 -28 9 -3 6 -16 10
-28 9 l-22 0 21 -9 c27 -11 39 -29 27 -41 -5 -5 -24 4 -46 22 -32 26 -36 33
-25 47 11 13 10 14 -8 4 -16 -8 -24 -8 -32 0 -9 9 -20 6 -43 -11 -39 -29 -49
-20 -15 14 15 14 24 30 21 35 -3 5 0 10 7 13 7 2 3 3 -8 1 -13 -2 -24 3 -28
12 -5 12 -1 14 15 9 15 -5 19 -4 14 5 -4 6 -17 10 -28 8 -12 -1 -27 1 -34 5
-6 4 -14 3 -18 -3 -3 -5 -13 -10 -22 -10 -13 0 -13 3 -3 15 7 8 16 13 20 10 5
-3 11 -1 15 5 8 13 52 13 60 0z m345 -12 c0 -12 -3 -18 -7 -14 -11 10 -12 36
-2 36 5 0 9 -10 9 -22z m840 18 c0 -2 -8 -10 -17 -17 -16 -13 -17 -12 -4 4 13
16 21 21 21 13z m-613 -20 c0 -8 -6 -12 -14 -9 -31 12 -9 -8 28 -25 34 -16 38
-20 25 -31 -16 -14 -106 -5 -106 10 0 5 13 6 29 3 16 -4 32 -1 35 5 6 10 -5
15 -26 12 -8 -1 -5 20 5 37 11 16 24 15 24 -2z m68 -25 c-3 -6 -16 -11 -28
-11 -21 1 -21 1 3 15 27 14 36 13 25 -4z m1502 -13 c-3 -7 -5 -2 -5 12 0 14 2
19 5 13 2 -7 2 -19 0 -25z m-2408 -38 c1 -13 0 -13 -9 0 -5 8 -9 24 -9 35 l0
20 9 -20 c5 -11 9 -27 9 -35z m501 -5 c-7 -8 -17 -15 -23 -15 -6 0 -2 7 9 15
25 19 30 19 14 0z m333 -4 c15 -6 16 -9 4 -25 -13 -18 -18 -18 -61 -6 -25 7
-46 14 -46 15 0 2 3 10 6 18 6 15 51 14 97 -2z m-212 -33 c8 -7 18 -21 22 -31
5 -12 -6 -7 -33 15 -22 18 -40 37 -40 41 0 8 24 -4 51 -25z m189 -24 c0 -9
-28 -3 -46 11 -17 13 -16 14 14 4 17 -6 32 -13 32 -15z m-1104 -13 c-4 -5 3
-7 14 -4 11 3 27 -1 36 -8 9 -7 42 -14 75 -16 47 -3 59 -1 59 11 0 21 28 9 35
-15 4 -11 19 -26 35 -34 28 -14 28 -16 14 -45 -15 -29 -16 -29 -44 -15 -39 20
-47 19 -25 -5 37 -41 -29 -13 -131 56 -45 30 -86 54 -92 54 -6 0 -9 7 -6 15 4
8 13 15 21 15 8 0 12 -4 9 -9z m1104 -22 c0 -4 16 -3 35 1 34 8 39 5 36 -14
-1 -4 3 -14 9 -21 16 -19 2 -60 -30 -88 -15 -14 -30 -31 -32 -38 -3 -10 -9 -9
-27 3 -13 9 -28 15 -35 14 -6 -2 -8 -1 -3 1 4 3 5 8 3 11 -2 4 0 27 4 52 7 37
6 47 -8 58 -26 20 -32 14 -16 -15 7 -16 14 -39 14 -52 0 -24 -1 -24 -24 8 -14
19 -22 40 -19 49 5 11 3 13 -6 7 -10 -6 -11 -3 -1 14 9 18 19 21 56 20 24 -2
44 -6 44 -10z m-750 -43 c0 -40 -20 -82 -48 -103 -44 -31 -52 -35 -47 -21 2 7
9 32 15 54 18 73 80 127 80 70z m589 10 c7 -9 8 -17 2 -20 -15 -10 -40 5 -34
20 7 18 17 18 32 0z m371 -21 c0 -11 13 -15 48 -16 29 -1 36 -4 20 -6 -16 -2
-28 -9 -28 -14 0 -5 -8 -9 -17 -9 -46 -1 -163 -82 -166 -115 -1 -25 -47 -99
-61 -101 -21 -3 -15 17 25 97 18 37 51 77 96 117 72 65 83 71 83 47z m-793
-21 c-3 -3 -12 -4 -19 -1 -8 3 -5 6 6 6 11 1 17 -2 13 -5z m443 -11 c0 -2 -6
-11 -14 -19 -15 -15 -10 -54 6 -54 6 0 8 9 5 20 -6 24 18 48 27 25 3 -8 16
-16 28 -16 19 -1 19 -2 5 -6 -15 -4 -18 -12 -15 -38 3 -28 -1 -36 -29 -55 -21
-14 -42 -21 -58 -18 -14 3 -24 3 -21 1 2 -3 -11 -18 -30 -35 -19 -17 -34 -37
-34 -46 0 -8 -3 -13 -6 -9 -8 8 17 117 27 117 5 0 6 -8 2 -17 -5 -16 -4 -16 8
0 12 15 19 16 42 8 18 -7 26 -7 22 -1 -3 6 -2 10 3 10 19 0 22 33 6 52 -10 10
-14 21 -11 25 4 3 1 13 -6 21 -9 12 -9 16 1 19 6 3 12 11 12 19 0 8 6 11 15 8
8 -4 15 -8 15 -11z m-530 -22 c0 -23 -16 -36 -25 -21 -4 6 -10 8 -15 5 -5 -3
-11 -1 -14 4 -7 11 22 23 36 14 7 -3 8 -1 4 5 -4 7 -2 12 3 12 6 0 11 -9 11
-19z m-33 -47 c-5 -5 -57 13 -57 20 0 3 14 0 31 -6 16 -6 28 -12 26 -14z m138
-4 c-3 -5 -12 -10 -18 -10 -7 0 -6 4 3 10 19 12 23 12 15 0z m349 -6 c9 -23 8
-24 -14 -24 -11 0 -20 2 -20 4 0 12 13 36 20 36 4 0 11 -7 14 -16z m-189 -5
c11 -16 1 -19 -13 -3 -7 8 -8 14 -3 14 5 0 13 -5 16 -11z m-355 -42 c0 -14
-19 -37 -31 -37 -4 0 -2 11 4 25 13 27 27 33 27 12z m335 3 c-3 -5 -12 -10
-18 -10 -7 0 -6 4 3 10 19 12 23 12 15 0z m-500 -46 c-17 -18 -35 -18 -35 -1
0 22 22 38 36 26 11 -9 11 -14 -1 -25z m225 31 c0 -2 -10 -9 -22 -15 -22 -11
-22 -10 -4 4 21 17 26 19 26 11z m11 -26 c-13 -10 -28 -19 -35 -19 -6 1 1 8
17 16 15 8 27 20 27 26 0 6 3 8 8 4 4 -4 -4 -16 -17 -27z m635 -1 c0 -10 -1
-18 -3 -18 -1 0 -7 8 -12 18 -7 13 -6 19 2 19 7 0 13 -9 13 -19z m-602 -9
c-10 -12 -18 -23 -16 -25 5 -9 1 -24 -7 -24 -14 0 -7 27 14 50 10 11 20 20 23
20 3 0 -3 -9 -14 -21z m46 17 c0 -3 -4 -8 -10 -11 -5 -3 -10 -1 -10 4 0 6 5
11 10 11 6 0 10 -2 10 -4z m43 -13 c-7 -2 -19 -2 -25 0 -7 3 -2 5 12 5 14 0
19 -2 13 -5z m-168 -33 c-3 -5 -12 -10 -18 -10 -7 0 -6 4 3 10 19 12 23 12 15
0z m-244 -49 c-11 -15 -25 -40 -31 -55 -9 -25 -40 -37 -40 -15 0 5 4 8 9 4 5
-3 13 0 17 6 4 8 3 9 -4 5 -7 -4 -12 -2 -12 5 0 9 -3 9 -14 0 -11 -9 -20 -10
-35 -1 -26 14 -26 18 1 42 22 19 39 24 93 31 17 2 31 5 33 6 2 0 -6 -12 -17
-28z m219 25 c0 -2 -7 -7 -16 -10 -8 -3 -12 -2 -9 4 6 10 25 14 25 6z m-42
-40 c-7 -8 -15 -12 -17 -11 -5 6 10 25 20 25 5 0 4 -6 -3 -14z m117 -25 c6
-29 28 -46 45 -36 5 3 7 -3 5 -12 -2 -10 -4 -22 -4 -27 -1 -6 -8 -1 -17 10 -8
10 -13 14 -10 8 3 -6 -4 -20 -17 -30 l-22 -19 19 23 c19 22 19 22 0 22 -16 0
-17 2 -4 10 12 7 8 12 -17 21 -18 6 -30 15 -27 21 4 6 10 6 17 -1 18 -18 28
-12 17 9 -7 12 -16 18 -23 13 -7 -4 -7 0 2 10 17 21 28 15 36 -22z m672 17
c-3 -8 -6 -5 -6 6 -1 11 2 17 5 13 3 -3 4 -12 1 -19z m-67 -8 c0 -5 -7 -10
-15 -10 -8 0 -15 5 -15 10 0 6 7 10 15 10 8 0 15 -4 15 -10z m70 -35 c0 -14
-5 -25 -11 -25 -6 0 -9 -9 -6 -20 3 -11 0 -20 -5 -20 -6 0 -8 12 -4 31 3 17 6
38 6 45 0 8 5 14 10 14 6 0 10 -11 10 -25z m-932 -70 c-6 -14 -13 -23 -15 -21
-5 5 15 46 22 46 3 0 -1 -11 -7 -25z m635 10 c-3 -9 -8 -14 -10 -11 -3 3 -2 9
2 15 9 16 15 13 8 -4z m180 -8 c3 -7 -4 -19 -15 -26 -11 -7 -18 -9 -16 -4 3 4
8 16 11 26 8 20 13 22 20 4z m-256 -13 c-3 -3 -12 -4 -19 -1 -8 3 -5 6 6 6 11
1 17 -2 13 -5z"/>
<path d="M728 1583 c6 -2 18 -2 25 0 6 3 1 5 -13 5 -14 0 -19 -2 -12 -5z"/>
<path d="M758 1533 c7 -3 16 -2 19 1 4 3 -2 6 -13 5 -11 0 -14 -3 -6 -6z"/>
<path d="M1000 1450 c22 -7 21 -8 -13 -9 -44 -1 -80 -17 -72 -32 9 -14 38 -11
32 4 -3 8 7 12 34 12 27 0 38 -4 34 -12 -5 -15 4 -16 25 -3 23 14 -1 45 -36
47 -28 2 -28 2 -4 -7z"/>
<path d="M1060 1361 c0 -5 7 -11 14 -14 10 -4 13 -1 9 9 -6 15 -23 19 -23 5z"/>
<path d="M1074 1005 c-5 -24 -7 -42 -2 -39 8 5 23 73 16 79 -2 2 -8 -16 -14
-40z"/>
<path d="M839 962 c18 -23 42 -47 53 -53 33 -18 116 -5 141 21 l22 22 -35 -21
c-20 -12 -52 -21 -75 -21 -33 0 -47 7 -89 48 l-49 47 32 -43z"/>
<path d="M150 636 c0 -2 7 -7 16 -10 8 -3 12 -2 9 4 -6 10 -25 14 -25 6z"/>
<path d="M661 706 c2 -2 18 -6 34 -10 22 -5 26 -4 15 4 -14 9 -59 15 -49 6z"/>
<path d="M180 517 c0 -9 92 -68 97 -63 3 2 -5 9 -16 16 -12 6 -19 15 -16 20 3
5 0 12 -6 16 -8 4 -9 3 -5 -4 10 -16 0 -15 -29 4 -14 9 -25 14 -25 11z"/>
<path d="M3194 1540 c0 -52 1 -74 3 -47 2 26 2 68 0 95 -2 26 -3 4 -3 -48z"/>
<path d="M499 1398 c-5 -14 -2 -98 4 -98 7 0 12 34 7 55 -1 5 -2 18 -3 27 -1
16 -5 23 -8 16z"/>
<path d="M527 1343 c-11 -11 -8 -51 5 -59 7 -4 8 -3 4 4 -4 7 -2 12 4 12 6 0
10 -8 9 -17 -1 -10 -1 -25 0 -33 1 -12 3 -13 10 -1 6 9 13 1 24 -30 8 -24 16
-36 16 -27 1 24 -38 112 -54 121 -8 4 -12 14 -9 22 6 16 2 20 -9 8z"/>
<path d="M160 1314 c-8 -8 -27 -22 -44 -31 -34 -17 -96 -72 -96 -86 0 -4 10
-1 22 7 12 9 31 16 42 16 23 0 106 -47 106 -60 0 -6 11 -10 25 -10 14 0 25 -4
25 -10 0 -5 15 -17 33 -26 35 -19 36 -21 -28 59 -22 27 -40 61 -41 75 -1 15
-9 39 -17 55 -13 24 -16 26 -27 11z m30 -44 c0 -5 -2 -10 -4 -10 -3 0 -8 5
-11 10 -3 6 -1 10 4 10 6 0 11 -4 11 -10z"/>
<path d="M2328 1283 c-16 -2 -28 -9 -28 -14 0 -6 -4 -8 -9 -5 -5 3 -11 -9 -14
-27 -7 -46 33 -98 71 -93 50 8 71 18 77 37 4 11 14 18 23 17 21 -4 30 71 10
84 -13 8 -80 8 -130 1z m92 -87 c0 -3 -4 -8 -10 -11 -5 -3 -10 -1 -10 4 0 6 5
11 10 11 6 0 10 -2 10 -4z"/>
<path d="M1993 1244 c-22 -16 -32 -54 -14 -54 5 0 8 -8 7 -17 -1 -13 8 -19 27
-21 16 -2 31 -10 34 -18 3 -9 20 -14 48 -14 57 0 69 5 100 46 l27 35 -28 22
c-34 26 -43 29 -119 33 -44 3 -66 -1 -82 -12z"/>
<path d="M440 1230 c-8 -5 -10 -10 -5 -10 6 0 17 5 25 10 8 5 11 10 5 10 -5 0
-17 -5 -25 -10z"/>
<path d="M2632 1220 c0 -14 2 -19 5 -12 2 6 2 18 0 25 -3 6 -5 1 -5 -13z"/>
<path d="M255 1210 c-9 -15 3 -30 24 -30 25 0 33 11 20 27 -13 15 -35 17 -44
3z m20 -10 c3 -5 1 -10 -4 -10 -6 0 -11 5 -11 10 0 6 2 10 4 10 3 0 8 -4 11
-10z"/>
<path d="M330 1180 c-20 -6 -21 -8 -5 -8 11 0 34 4 50 8 27 7 27 8 5 8 -14 0
-36 -4 -50 -8z"/>
<path d="M1806 1164 c19 -75 22 -81 23 -38 1 26 -5 46 -15 55 -13 11 -14 9 -8
-17z"/>
<path d="M2590 1155 c0 -8 2 -15 4 -15 2 0 6 7 10 15 3 8 1 15 -4 15 -6 0 -10
-7 -10 -15z"/>
<path d="M442 1138 c6 -18 28 -21 28 -4 0 9 -7 16 -16 16 -9 0 -14 -5 -12 -12z"/>
<path d="M1862 1118 c-7 -7 -12 -20 -12 -31 0 -30 34 -16 38 16 4 29 -6 35
-26 15z"/>
<path d="M408 1033 c12 -2 30 -2 40 0 9 3 -1 5 -23 4 -22 0 -30 -2 -17 -4z"/>
<path d="M2320 1028 c0 -2 9 -11 20 -21 11 -9 20 -13 20 -7 0 5 -9 14 -20 20
-11 6 -20 9 -20 8z"/>
<path d="M2145 1000 c-3 -5 -1 -10 4 -10 6 0 11 5 11 10 0 6 -2 10 -4 10 -3 0
-8 -4 -11 -10z"/>
<path d="M2190 990 c0 -5 -7 -10 -15 -10 -13 0 -14 -4 -4 -22 10 -18 9 -20 -5
-15 -8 3 -18 1 -22 -5 -4 -7 -3 -8 4 -4 7 4 12 2 12 -4 0 -6 6 -10 13 -9 6 1
25 -3 40 -9 30 -13 73 -7 84 11 4 6 1 13 -7 15 -9 3 -6 10 11 23 l24 18 -46
-1 c-25 0 -55 5 -67 11 -14 8 -22 8 -22 1z"/>
<path d="M1900 960 c-13 -8 -13 -10 2 -10 9 0 20 5 23 10 8 13 -5 13 -25 0z"/>
<path d="M1778 905 c2 -14 6 -25 8 -25 2 0 4 11 4 25 0 14 -4 25 -9 25 -4 0
-6 -11 -3 -25z"/>
<path d="M3192 672 c-2 -29 -4 -31 -21 -23 -10 6 -49 13 -87 17 l-69 7 24 -26
c24 -26 147 -85 157 -75 3 3 3 34 1 69 -2 35 -4 49 -5 31z"/>
<path d="M0 450 c0 -16 5 -30 11 -30 5 0 24 -15 42 -34 30 -32 97 -55 97 -34
0 16 -116 128 -133 128 -12 0 -17 -8 -17 -30z"/>
<path d="M2294 37 c3 -12 5 -25 5 -29 1 -12 34 -9 51 3 12 9 11 10 -8 6 -12
-3 -20 -1 -16 4 3 5 -1 9 -8 9 -11 0 -10 2 0 9 11 6 9 10 -7 14 -17 4 -20 1
-17 -16z"/>
<path d="M2361 44 c0 -11 3 -14 6 -6 3 7 2 16 -1 19 -3 4 -6 -2 -5 -13z"/>
</g>
</svg>
